# xmcd
#
# Track frame offsets: 
#        150
#        19441
#        38301
#        53146
#        67962
#
# Disc length: 1201 seconds
#
# Revision: 0
# Processed by: cddbd v1.5.2PL0 Copyright (c) Steve Scherf et al.
# Submitted via: ExactAudioCopy v0.99pb3
#
DISCID=3604af05
DTITLE=John Meeks - Oh Dry Land [DigiMCD]
DYEAR=2013
DGENRE=Americana
TTITLE0=Night Drive
TTITLE1=Oh Dry Land
TTITLE2=Old Moon Heart
TTITLE3=Wanderin' Blue
TTITLE4=I Gave You Love
EXTD=
EXTT0=
EXTT1=
EXTT2=
EXTT3=
EXTT4=
PLAYORDER=
